/* XPM */
static char *_ed294d145894910d6d4b6b237ee23a3ZOfCBo2FhfrvjHDH[] = {
/* columns rows colors chars-per-pixel */
"64 64 180 2 ",
"   c #2F2A30",
".  c #262630",
"X  c #3D3B3C",
"o  c #323440",
"O  c #423E44",
"+  c #3F454E",
"@  c #474248",
"#  c #4B4B4D",
"$  c #474447",
"%  c #4C4E5A",
"&  c #545354",
"*  c #545359",
"=  c #595758",
"-  c #57585C",
";  c #5C5B5D",
":  c #565960",
">  c #5C5D63",
",  c #585B67",
"<  c #615E64",
"1  c #5E6166",
"2  c #5F636E",
"3  c #636265",
"4  c #686667",
"5  c #64646A",
"6  c #69676D",
"7  c #666A6E",
"8  c #6B6A6D",
"9  c #6B6A66",
"0  c #706E6F",
"q  c #73726F",
"w  c #666B74",
"e  c #6C6D72",
"r  c #6D6E79",
"t  c #706E73",
"y  c #6E7176",
"u  c #677079",
"i  c #6C727C",
"p  c #727274",
"a  c #787775",
"s  c #7A7975",
"d  c #74757B",
"f  c #79777C",
"g  c #76797D",
"h  c #7B7B7D",
"j  c #807E7E",
"k  c #83827E",
"l  c #747682",
"z  c #767A82",
"x  c #7C7D82",
"c  c #7B7E89",
"v  c #807E82",
"b  c #7D8185",
"n  c #7D838B",
"m  c #7F898E",
"M  c #7E8790",
"N  c #7F8991",
"B  c #838385",
"V  c #888686",
"C  c #8A8986",
"Z  c #83858B",
"A  c #89878A",
"S  c #85898E",
"D  c #8B8A8D",
"F  c #908F8C",
"G  c #93928F",
"H  c #838791",
"J  c #858B93",
"K  c #8B8D92",
"L  c #868F98",
"P  c #8A8E99",
"I  c #918E92",
"U  c #8E9195",
"Y  c #879099",
"T  c #8C939C",
"R  c #8F989F",
"E  c #929295",
"W  c #989793",
"Q  c #989896",
"!  c #93959B",
"~  c #94999E",
"^  c #9A9A9D",
"/  c #8F96A0",
"(  c #8F99A1",
")  c #9296A2",
"_  c #949CA3",
"`  c #9A9DA3",
"'  c #969EA8",
"]  c #999EA8",
"[  c #97A0A7",
"{  c #9CA1A6",
"}  c #97A1A9",
"|  c #9CA3AB",
" . c #9FA8AF",
".. c #9EA7B0",
"X. c #9FA8B1",
"o. c #A1A2A5",
"O. c #A2A6AB",
"+. c #A3A9AE",
"@. c #A9AAAE",
"#. c #A2A7B1",
"$. c #A3ACB3",
"%. c #A9AEB4",
"&. c #A6AFB8",
"*. c #A8AFBA",
"=. c #A7B0B7",
"-. c #ABB1B6",
";. c #A7B0B9",
":. c #ABB4BC",
">. c #AFB8BF",
",. c #B1B2B5",
"<. c #B1B5BB",
"1. c #B4B9BE",
"2. c #BBBCBD",
"3. c #ADB7C0",
"4. c #AEB9C2",
"5. c #B3B7C0",
"6. c #B2BBC3",
"7. c #BABDC2",
"8. c #B3BEC9",
"9. c #C1BFC0",
"0. c #B6C1C7",
"q. c #BFC2C5",
"w. c #B6C1CC",
"e. c #B8C3CD",
"r. c #BAC6D2",
"t. c #BEC9D2",
"y. c #C3C3C5",
"u. c #C8C6C7",
"i. c #C4C6CA",
"p. c #C8C7CC",
"a. c #C6C8CC",
"s. c #CACBCE",
"d. c #C4CAD1",
"f. c #CCCDD2",
"g. c #C2CFD8",
"h. c #D2CFD6",
"j. c #CFD2D7",
"k. c #CED2DA",
"l. c #D3D3D5",
"z. c #D4D4D9",
"x. c #DBDBDC",
"c. c #E0DEDF",
"v. c #DEDEE1",
"b. c #DFE1E1",
"n. c #E1E1E2",
"m. c #E3E2E4",
"M. c #E5E6E8",
"N. c #E6E7E9",
"B. c #E6E7EB",
"V. c #E7E5EA",
"C. c #E9E6EB",
"Z. c #E6EAEE",
"A. c #E7E8EA",
"S. c #E8E9EB",
"D. c #EAEAEC",
"F. c #EAEEF1",
"G. c #EDEEF1",
"H. c #EFEDF0",
"J. c #F0EEF4",
"K. c #EEF0F3",
"L. c #F3F3F6",
"P. c #F6F5F9",
"I. c #F9F6FA",
"U. c #F7FAFE",
"Y. c #F9FAFA",
"T. c #FCFAFA",
"R. c #FBFDFC",
"E. c #FBFFFF",
"W. c #FDFDFF",
"Q. c #FCFCFE",
"!. c #FFFDFE",
"~. c #FCFFFF",
"^. c #FDFFFE",
"/. c #FEFEFF",
"(. c #FFFEFF",
"). c #FEFFFF",
"_. c white",
"`. c #FEFEFE",
"'. c #FEFDFD",
"]. c #FDFDFE",
/* pixels */
"`.`.`.T.`.T.`.`.`.`.`.`.`.`.`.`.U.`.`.`.`.`.`.`.`.`.`.`.`.`.P.`.`.T.`.`.`.Q.Q.`.Q.`.`.`.`.Q.`.`.Q.Q.Q.Q.Q.Q.Q.Q.`.`.`.`.`.P.`.`.",
"`.T.`.`.`.`.`.`.`.`.`.`.`.`.`.`.`.`.`.`.`.`.`.`.`.`.`.T.`.`.`.`.`.`.`.`.`.`.`.T.`.`.`.`.`.`.`.`.`.Q.Q.Q.Q.Q.Q.Q.P.`.R.`.`.`.`.`.",
"`.`.L.l.m.x.n.x.n.n.m.m.B.B.B.B.S.S.B.B.B.B.B.B.G.B.B.v.v.B.x.x.S.S.A.A.B.B.B.B.G.G.G.K.L.L.K.G.A.A.A.A.Z.F.K.K.G.Z.n.b.b.x.x.`.",
"T.T.u.8 p p p 3 V V V D K K U E D D D D D K U E V B D D D E U D ! V z K ! B Z E V D K K K K K K S S Z Z Z S S S h 8 6 h h p h l.",
"`.`.u.3 j A E V ^ ^ ^ ` ` o.{ o.` ^ ^ ^ ` ` { { O.o.{ ^ D V D x O.K i Z ` S Z S K ! ` ` ` ~ ~ ~ ` ~ ~ ! ~ ! ! U ~ S B E ! V d x.",
"`.`.9.3 B 8 4 8 h h h h h g d d h g d d d g d d B b b B d x E S ` O.Z x Z d z z z x b b x x x b x x g g z z d d e 7 3 4 h U p l.",
"`.I.2.3 K p e B U U U K K K K K E U K K U U K S U K S K x x U x { <.P n H z H H P J S n H J J J S n Z S J J S n K S x e h E 8 f.",
"`.`.2.; E B D o.o.o.o.o.O.O.O.O.+.O.o.O.@.@.+.o.O.{ ` @.~ U ` x | ) 2 i _ ! ) T _ P n n J T T P T T ! _ { { [ _ U ~ ~ S S D - f.",
"`.T.s.e o.V ! ^ @.@.@.%.%.-.%.@.-.-.-.-.-.<.:.-.%.-.$.%.{ _ { ! ` $.T _ ' | ' | | _ T J L / ) T T Y T R _ _ _ ~ ~ _ ! b U ` 7 z.",
"`.T.u.8 ^ K ^ ` ,.,.,.<.1.7.1.<.-.-.-.-.-.<.:.-.:.<.-.:.@.` { ! ..*.T T _ ....&.*.$.| _ _ | ..| | | { | #.#.#.O.` { ` K ! ~ 1 j.",
"`.T.1.3 D E ` O.-.<.<.<.1.7.6.<.5.6.<.<.6.6.6.:.:.:.:.<.%.{ O._ $.:.Y R ' %.&.3.3.:.%.| | $.;.;.;.%.$.%.&.%.%.#.| O.[ ! ! K : d.",
"`.`.,.> h K ^ %.,.<.<.<.<.1.1.<.<.<.:.:.:.6.:.:.:.:.:.:.%.| #.' | :._ _ | %.&.:.:.:.%.X.X.%.:.:.:.%.$.$.&.%.$.#.#.| ` ~ T b * i.",
"`.`.2.8 h K E @.@.@.$.@.%.-.-.%.%.%.%.$.%.:.%.#.:.:.:.:.#.| $.} _ :.} } } ..X.;.:.:.&.$.X.&.:.:.:.&.&.&.*.:.&.$.$.O._ _ T x : d.",
"U.`.a.x K K K O.O.@.@.@.%.-.<.-.*.:.;.&.:.:.:.%.3.3.:.:.$.| #.' _ 4.| } _ } X.:.:.:.&.$.X.$.$.$.:.&.&.;.:.:.:.%.%.$.` ` T Z w k.",
"`.`.a.B ! K K O.-.<.<.:.<.1.7.6.:.:.:.:.:.6.3.:.;.:.:.4.&...#.' [ 6. .} _ | X.:.=.=.$.$.=.;.=.X.:.:.;.:.3.:.*.$.$.#._ ` T J i k.",
"`.U.q.g ! D U @.O.+.+.| { | O.| #.$.$.$.%.:.;.$.| $.%.4.;.#.%.} [ 6.X.| | X.$.;.=.$.$.=.:.4.4.&.:.3.3.3.5.3.*.$.| | ! _ P J d f.",
"`.`.y.p U E ! ! { { *.6.<.6.6.6.6.:.:.:.>.6.6.:.:.:.:.6.:.%.=.| | >.%.| X.| $.:.4.:.4.:.4.4.4.8.4.6.6.6.8.6.3.:.#.| L _ ! S d d.",
"`.`.y.p K E ~ ~ { { %.<.3.6.6.4.4.:.:.:.>.6.6.:.:.:.:.:.:.#.:.| | :.| _ ..$.;.:.:.:.w.w.6.4...} 8.8.6.8.8.8.3.:.#.] K _ ! S d d.",
"`.`.y.e K E ~ ` { { %.:.:.4.6.3.>.:.:.:.>.6.1.:.6.:.:.:.%. .=.| ' :.| _ ..&.:.3.4.3.8.4.4.4.;.3.w.8.8.8.w.8.6.3.#.| J _ E J d d.",
"`.`.y.e K E ~ ` { | %.:.:.:.6.:.:.:.:.:.1.6.>.:.6.:.:.:.%.| %.| T :.=.| X.$.:.4.4.3.4.3.4.e.e.g.w.w.w.w.e.w.6.6.#.| J ) E K d d.",
"`.`.y.p E ! ~ ` O.O.%.:.:.:.6.:.:.:.:.:.>.>.>.:.:.:.:.:.%.| #._ Y %. .[ | #.:.4.4.3.w.8.8.w.6.w.r.w.w.w.e.w.6.6.#.| J ! T K d d.",
"`.`.a.d ! ! ~ ~ +.O.:.:.:.:.4.:.:.:.:.>.>.:.:.:.:.:.:.:.%.| | T _ | Y L | %.3.4.6.4.e.w.6.w.4.6.r.w.w.w.w.w.6.6.$.{ J ! T K d a.",
"`.`.a.p E E ! ! $.@.:.:.:.:.4.:.:.:.:.>.:.:.:.:.:.:.=.:.#.} } Y _ _ n S | #.:.6.8.6.w.6.4.8.8.t.r.w.w.8.w.8.6.6.%.| K T U K d i.",
"`.`.y.p K K U U $.$.:.5.:.:.4.:.:.:.>.>.:.:.:.:.:.:.%.:.X.' [ Y R _ H K | [ #.6.4.4.w.4.4.6.4.e.r.w.8.8.8.6.6.4.%.| K T U K d i.",
"`.`.y.e D ! Z ~ $.-.-.:.:.:.:.:.:.:.:.:.:.6.:.:.:.:.:.=.=._ | _ T ! L J Y %.#.:.:.6.6.6.6.8.e.w.w.w.w.w.8.6.4.:.%.| S T U K d i.",
"`.`.y.p K ! S ` %.-.:.:.:.3.3.:.6.6.6.:.:.6.:.:.:.:.:.%.=._ | ' T _ _ ~ ~ %.| :.:.6.6.4.3.4.6.6.6.4.4.3.3.:.:.%.+._ S K S b 7 7.",
"`.`.y.p D ! S ~ $.-.:.:.:.3.3.:.>.6.>.:.:.>.:.:.=.:.:.%.=._ | ' U { $.+.' $.[ -.:.6.6.6.6.6.6.6.w.4.3.3.3.:.:.%.| ' S U K Z y i.",
"`.`.y.p V E S ! $.-.-.:.:.:.:.:.:.:.:.:.:.:.:.:.%.:.=.#.%._ | _ K O.-.$._ | ' -.:.:.:.:.4.4.3.:.4.:.;.;.:.:.$.| [ ~ b K K Z y i.",
"`.`.a.d V E K ~ %.-.:.:.:.:.3.3.:.:.:.:.:.:.:.=.$.=.%.|  .R | _ K O.-.@.~ [ _ :.:.:.>.6.6.>.:.:.:.;.%.;.:.;.#.| | R b K K S y q.",
"`.`.a.f B E K ! %.-.:.%.;.:.3.:.:.>.:.:.:.:.=.#. .$.#.[ | T | ~ K O.%.+.~ [ _ %.1.:.:.:.:.;.%.$.#.X.X.X.$.#.| ' R J g S K S d a.",
"`.T.a.f x K K E { +.$.#.#.%.%.$.#.$.%.$.$.$. .| | | | _ ' T | ~ K { %.@.` +._ | { ' ' ' [ _ _ ( _ ( ( ( ( ( R T S n d Z B b e i.",
"`.U.s.x B U U ! ! _ | | | | | ' R _ [ | | | } _ ' | } R _ Y | _ U { %.=.O.$.~ ` _ R R _ _ _ _ _ } } _ _ _ _ ' [ _ _ K ~ K b y s.",
"T.`.s.8 B E ) _ $.#.| #.%.&.%.;.%.:.:.' J _ :.%.:.;.| X.:./ } L J [ +.:.+.-.+.+.-.:.1.6.0.0.7.7.0.0.6.:.:.:.:.:.$.@.O.` ^ S p f.",
"`.`.s.8 x Z P ) J H J R _ _ _ _ Y R R J m Y _ _ L %.%.} | } #.n R +.$.=._ | _ [ | | +.$.$.$. . .| | | } [ [ ' _ O.{ ~ K U Z e a.",
"`.P.s.p x e , , c c n J L J H H N J N m J L J J L ' _ L L H | L T | | _ b n b n S H J J J J S m m N H m m m n b g y e e b b p f.",
"`.`.l.g K Z n P #.#.%.:.:.:.%.%.:.6.:.:.6.3.$.;.w.4.$.| | _ 6.=._ #.$.#.~ [ | $.$.$.=.=.=.=.$.$.;.:.:.:.:.:.-.$.<.@.! K K b 4 7.",
"T.T.s.8 x Z J ! ] ] | #.$.$.$.%.;.:.&.&.4.;.| &.;.;.$...| | :.L R | | | ~ [ ` | | | +.+.#.$.%.=.:.:.:.:.-.:.:.-.| ` ! D K B e a.",
"`.`.z.p Z Z Z H | | | #.X.X.X.$.#.$.$.%.:.:.%.:.:.$.;.6.6.#.3.Y ` $.$.$._ [ _ _ _ ' ` [ | | +.#.%.=.%.$.#.$.$.#.O.O.` U K x 8 s.",
"`.T.a.4 z x J ] $.$.$.%.#.| | X.$.X.$.%.%.:.:.%.:.X.:.g.8.| 6.| J _ { O._ | { O.+.O.| O.+.+.$.$.-.:.:.:.-.-.-.$.` ` ~ K K x e f.",
"`.T.f.h Z z z P | | #.%.$.#.X.$.;.X.$.%.X.;.:.' _ ;.d.t.:.| 8.Y R +.$.#.T _ _ [ $.$.#.+.+.+.$.$.$.=.:.-.%.%.$.O.O.{ ~ K D x e s.",
"`.U.l.K ` Z c c ] | $.$.....#.%.$.#...#.:.;.T i z n ( | _ _ Y i S | $.O.! { ` _ | | _ { -.$.{ %.:.=.%.#.%.-.$.{ { ` K S K x 4 f.",
"`.U.f.V E Z c c _ | #.$...|  .$.#.#.X.#.;.:._ n w z ( X.' L u + S { O.{ U _ ~ ~ b S S T +.+.O.<.#.;.:.%.#.#.$.+.` ~ K Z K h 4 f.",
"`.U.f.B K x c c ) ] ..#...| | #.#.#.X.#.&.;.| R | } | } _ R H i J { O.{ K ~ _ _ ! _ ` { $.| [ $.O.%.%.%.$.$.@.+.` ! D Z K h 3 s.",
"U.`.l.B K c c l T _ | #...| | | #.X.....#.$.X.| $.#...| ' ' _ R T O.O.{ K ! ~ ` _ ` | O.O.{ { +.%.O.| | $.%.O.` ^ ! S Z K h 3 p.",
"`.`.l.x Z x c l T _ | #.| | | | X.| | | | | | #._ | | _ / T Y Y T { ` ` S K T ` ` ` { O.{ ` O.$.#.| | | O.O.` ~ ` ! A B K h 3 p.",
"`.`.f.p d d c z P ) | | | | | | ..| | | ' _ ' ..$.&.| T L M M K ! ` ` ` S K U ` O.{ +.@.` ` +.O.` | #.O.` ! ~ ` ` ! V B D h 5 s.",
"`.`.f.8 d d Z c J T ' | } ' } | | ' ' } ' R _ | ' | ' ( R n i u ! ` ` ` Z K K ` ! T ` { ` { $.O._ | $.#._ T ! ` ` ! Z x D h 3 s.",
"U.`.l.e d z Z x H P _ ' ' _ ' | | ' _ } _ T / } ( _ T L R M u u U ~ ! ~ Z V D ^ ` ~ o.+.` o.O.` ` ` { o.` ~ ~ ` ` E B x A h 3 s.",
"`.`.z.6 x z z d Z T P _ ] ) _ _ _ ' ' ' _ T ) ' ) _ _ H J J l w E ! A D B V D Q G Q ^ Q Q ^ o.^ ^ ` ` ` ~ ! E E ! ! V h B B ; s.",
"`.`.z.5 f p d d Z E K ! _ ! _ _ ' ' ' ' _ / _ ' ) ) ) J H c i S d E I F j k k G C G W G W ^ ^ ^ ^ ^ ^ ^ ^ Q Q E Q Q B h x B > l.",
"`.`.z.3 p e e y x K Z K ! P ! ! ' _ _ _ _ R R _ / T T L H w 2 ! B E 3 & & 9 s V k C G D F E ! E ! Q ^ ^ ! Q Q E E E B h x x > z.",
"`.`.z.3 p e d d z Z b Z P K P P / Y L Y Y Y L L / T P J c : + r D E ; = 8 p q s h k V V A D I D E Q Q Q Q E E K E K B h B h - l.",
"`.`.l.> t e h b d Z b S K K K J R L J L P L J J H J P P L r % 3 B D ; 0 k p q k j k V V V A D D D D K E E E K D D D B B B p & l.",
"`.`.f.- e e x B d Z b S K K K S R P L P Y P L P P J L c d , o . B f X = 8 8 s C V V V V V A D D V V A D K K D D D D B B B p # s.",
"`.Q.p.* 8 e h x x K b b J J S x K J J J J H S J b z S Z x c r > v f $ 4 h s k h V V D D A V V A V V V D D D D V A V x B x 8 # s.",
"`.`.a.& 6 8 d x b K b x S b b d n b c b c x x c H l b z w d d 3 v A 3 j h p V k V V A A V V V V D D D D D A V B A V h x h 6 # f.",
"`.U.l.3 h 4 8 h B V b g g x x d z z z z z z z z Z d z Z e e z 6 h D < f h h q V V k B V B v x v D A V B B x x B d h d p p 8 3 x.",
"`.`.l.3 x d y e p d d e e e y e e e y i d d d d x d d e 6 d f * D K 4 D B h a q h h h v x f h x B x x B x d p p p p f B D h 6 x.",
"`.`.l.8 B d p p 5 8 e 5 1 3 5 5 > > 3 4 7 8 8 8 p e 6 < 6 x d < D V ; B 8 8 k 0 8 8 0 0 e 6 e p p p d h f p 8 8 p p x h V D p v.",
"`.`.x.f h 6 e x x B b x x x b x g g h d h h x x B x h d v f 6 t ^ ^ 6 B p 6 V h k j h h v v B B x x V D D V V V A D ! h x E x m.",
"`.`.l.p p p x D ! E K K K T U K K K D D D K E ! I K K B B e @ @ x K < f A j V V G D V V D I K D V V V A A A D E V V E x d x p x.",
"`.`.a.; - p p 8 V B x x b Z b x h h h h x B D K h x V f x d O   5 6 O & v B j B h s p p f x x f d p p p e p d x d 8 p d p 8 p x.",
"`.`.l.A V D b p S B b b B Z b b x z h x x B V A h f D x D I 6 < B t * * t f 0 0 p p p p p f f d f d d d p p h B V h p x B x A l.",
"`.`.`.L.`.T.L.`.`.Q.U.U.U.U.U.U.U.U.I.P.P.P.L.L.U.C.U.P.P.I.C.Q.C.h.v.x.x.V.n.c.n.S.J.S.V.D.J.L.J.L.P.T.P.P.U.`.T.`.P.T.`.U.P.`."
};
