/* XPM */
static char *v2_door[] = {
/* columns rows colors chars-per-pixel */
"64 64 24 1 ",
"  c black",
". c blue",
"X c #000014",
"o c #E1FFFF",
"O c #000003",
"+ c #000009",
"@ c #000010",
"# c #000002",
"$ c #00000D",
"% c #000011",
"& c #00000C",
"* c #000008",
"= c #0000E9",
"- c #00000B",
"; c #0000DE",
": c #000007",
"> c #000006",
", c #000005",
"< c #FFDD00",
"1 c #000015",
"2 c #00000A",
"3 c #000001",
"4 c #000004",
"5 c #0000F1",
/* pixels */
"                                                                ",
"                            ........                            ",
"                      .......      ......                       ",
"                 X.....                 .....                   ",
"                ...          o o o o        ... O               ",
"             +...@     o o o         o       #...               ",
"             ..      o                 o o      ..              ",
"            ..     o         ......        o     ..             ",
"           ..    o      ......    ......     o    ..            ",
"         $..   o     ....%             ....&   o   ..           ",
"         ..       *...$                   .=.       ..          ",
"         .&   o   ..                        ..- o    .;         ",
"        ..  o    ..                         +..:  o  ..         ",
"        .>     *..                           O..#     ..>       ",
"       ..  o   ..                             ,..  o   .        ",
"       .       .                                .      ..       ",
"       .   o  ..              <<<<              ..  o  1.       ",
"      ..      .2            <<<  <<             @.      .       ",
"      .   o  ..             <      <             ..  o  .       ",
"      .      .             <        <             .     ..      ",
"      .  o   .            <<        <<            .   o  .      ",
"      .     ..           <<          <<            .     .      ",
"      .  o  .            <            <            .  o  .      ",
"     ..     .            <<          <<            .     ..     ",
"     .  o   .             <    <<    <             .   o  .     ",
"     .     ..             <<<<<<<<< <<             ..     .     ",
"     .  o  .               <<<<<<<<<<               .  o  .     ",
"     .     .                <<<<<<<<                .     .     ",
"......  o345               <<<<  <<<<               .* o #......",
"     O     .........       <<<<  <<<<       .........     ,     ",
"        o          .       <<<<  <<<<  ...  .          o        ",
"                   .       <<<<  <<<< .   . .                   ",
"        o o o o o  .       <<<<  <<<<.     ..  o o o o o        ",
"                   .       <<<    <<<.  .  ..                   ",
"                o  .       <<<    <<<.     ..  o                ",
"..............     .       <<<    <<< .   . .     ..............",
"             .  o  .        <<<<<<<<   ...  .  o  .             ",
"             .     .        <<<<<<<<        .     .             ",
"             .  o  .         <<<<<<         .  o  .             ",
"             .     .           <<           .     .             ",
"             .  o  .        o      o        .  o  .             ",
"    ..........     .......     ..     .......     ..........    ",
"   .            o  .        o  ..  o        .  o            .   ",
"   .               .           ..           .               .   ",
"   .  o o o o o o  .  o o o o  ..  o o o o  .  o o o o o o  .   ",
"   .               .           ..           .               .   ",
"   .  o         o  .  o        ..        o  .  o         o  .   ",
"   .     .....     .     ..............     .     .....     .   ",
"   .  o         o     o                  o     o         o  .   ",
"   .                                                        .   ",
"   .  o o o o o o o o o o o o o  o o o o o o o o o o o o o  .   ",
"   .                                                        .   ",
"   .  o         o           o      o           o         o  .   ",
"   .     .....     .......     ..     .......     .....     .   ",
"   .  o  .   .  o  .     .  o  ..  o  .     .  o  .   .  o  .   ",
"   .     .....     .......     ..     .......     .....     .   ",
"   .  o         o           o  ..  o           o         o  .   ",
"   .                           ..                           .   ",
"   .  o o o o o o o o o o o o  ..  o o o o o o o o o o o o  .   ",
"   .                           ..                           .   ",
"   .                           ..                           .   ",
"    ...........................  ...........................    ",
"                                                                ",
"                                                                "
};
