/* XPM */
static char *_cccb6131e3d4000e603313ecdd84ea0w0Zu2qnbCgyOFgii[] = {
/* columns rows colors chars-per-pixel */
"64 64 3 1 ",
"  c black",
". c yellow",
"X c blue",
/* pixels */
"X XXX X  X   X    X X   X.X  X        . X XX  X XX .. X X      X",
"XXXX     XX    X    XX X X       X  X.XX   X   X X   X     X X  ",
"X X  .         X  XX  X XX X X  XXX X   X     X X  X  XX    X  X",
" X X   X X XX   X  X XX X XXX     X.X    XXX  X XX  X X  X    XX",
"X    XX XX X X X  XX.X   XXX   XX X X XXX . X X           X X   ",
"    X X  X X XXX   X     X  XX   XX.   XX      X.X X. XX  XXXXX ",
"    ..XX    XXXX   X X.    .   X X X     XX   X XXX X X X  X    ",
" X    XX    X XX X   X XXX     XX .   X X    XXX       X   XX X ",
"X X  XXXX    X   .XXXX   X      X    X XXX     X X X XXX  XX  X.",
"  XX  XXX    X  .  XXX X XXXX  X . XX  .XXX XX X   X X.X X    XX",
" . X         X    X    . X XX   XX X X X  XX  .    .XX    XX X X",
" X. XX  X  XXX      X   .  XX  XX  X.     X XXXXX   XXX   .X XX ",
"  .    .XXX X XXXX  XX  XXXXXXXX     .   X .XXXX  XX  XX     XXX",
"     XXXX  X . X.  X   X  XX    X         .       X XXX  X    XX",
" .    XX    XX XXXXX XXX X X X .X.X  XX  XX     XX   X XXX .    ",
" X    XXX   X XXXX X      XX.X X   X X .     X   XX      XXX    ",
"XX X   X     . X  XX .    X  XXX X. X  XXXXX   XX X X  X X   XXX",
" .X XX         X XX   XX       XX  X  XX          XX   X   XXXX.",
"  XX  XX X     XX X XXXX      X     XX XXX     X.   X  XX  X X X",
" X  .  X.       X  XX..  X  X   XX. X           XXX        XXX  ",
"X X  XX      X.X  X . X  XXX   .    XX     X X  . .    X X. X XX",
" XXXX X  XXXXX   .X X   XX   XX . XX  XX   X   . XX X X XX XX X.",
"X XX  .      X X  X XX     X     X    X X .    XX  XX X  XX   .X",
"         X XXXX  X    X X  XX  XX.  XX X     ..X   XX XXX XX   X",
"  X      X  .XXX   XX XX.     X X .   XXX   X    .  X  X  XXX. X",
".    XXX   XX     X    XXX  X  X  X  X  X   XX     XXX   X   X X",
"  X     X. .  X    X .XX X  X X XX X. X XX XXX X      X XX      ",
"  X XXX  XXX .  XX  X  XXX X  X   XX  XX X       XX  X X XXX    ",
"  X .X X X    X                 X X  XX         X  X  X .  X  X ",
" XXX    .   . XX  X   XX.  ..  X X     X X  XX.X  .  X. X X X  X",
"  X   . XX           XX  XX    X    X   XX XX       X  X X   X  ",
"X XXX X       X    XX XX  X    XX X .  .XX X X     XX  X     X. ",
"XX .  XX.X     XX     X   X  X  X  XXXXX X   X. X  XX XX  XX X  ",
"      .  XX X.     X X.   X     XXX X X     X X XXX     . X X  X",
" X XX    XX X   X .    X XX X .XX. XX .  X X  XXX X  X  X      X",
" X X   XX XXX XXXX     .   XX   X    X X X    XXX X    . X  XXXX",
"   XX XX XXXXXX  X          X X  X  X .X    X X    XXXX XXX X  X",
"XX  X    X XX   XXX  XX XX.XXX    XX    XXXXXX  X    X XXX     X",
"X   XX X X  XXXXX X XX   X   XX X  XX .X X XXX X XX  X    XX    ",
"X XXX X X  . X   X   XXXX   X   X  XX XX X XX X X     X  X    X ",
" XXXX   XX . XX         XX  X    XX.X  X   XX XX XX    X    X  X",
".XX XX.X  X    X   X  XX  X     . X  X XXX XX     X  X  XX X  XX",
"   X  XX  XXXXX  XXXX XX    X XX XX XX      X   X     . X     X ",
"  X  XXX  XX    X  X  .   X  X. XX X  .XX.X XXXXX  X   XXX XXX X",
"XX    X   X.X.XX  XX X. X XX  .X  . X   X  X X  XXXXX   X  X X  ",
"XX    X X X  X  XX XX  XXXX X   X X  XX   X XXX XX X    XXXX XXX",
" XX   X       X X  XXX. XX  X X    XX  XX X  X  X   X XXXXXXXX  ",
" X   X XXX  X XXX.X   X.X     X   XX         X      X  XX       ",
"  ..   X  XX   X   X X  XX X        .  XX  XXX  XX    X   .   XX",
"  X   XXX  X X X.XXX.X XX  XX   X    X XX  X X   X X  XXX  X  XX",
"XX X X  X  XX X X  XXX .    X X  X. X..X   X XX  XX X.   XXX    ",
"X   XX X XXXX .X X    X XX. X    .  X  XXXX  XX.     XXX   X  XX",
"  .X XXX      XXX XX X X    X    XXX   XXXXX X  X X XX  X  X   X",
"  . XX   ..X      XX    . XX X   X XX X    XXX      .       X X ",
"X. X .X  X XX XXX  XX  XXX X  XX    X. XXXX    X X   X X   X    ",
"X  XXXX   X    XX XXXX X   XX X XXX   XX  XX      X XX. X    XXX",
"  X XXX   XXX.          .XXX.. X X X  X  X   X  XX  X XX        ",
"       X.X  .   X  X XXX  X     XX X  XXX     X XX X  X    XX X ",
" X XXX  X    X X  X X X X X.  XXXX  XXXX   X X   X X XXX XX.X X ",
" X  X.X X.XX.X X XX  X   X X  XXX X X    XX     XXXXXX XXX X.   ",
" XX XXX      X        X  X      XXXX X    X   X XXX XXXXX  .X   ",
"  XXX   X  .     XX X XXXX X   XX X XX   . X.  X  .  X  X  XX X ",
"XX X.X XXX  X.  XX   . X XXX  X  .XX   XX XX  X XX   X XX  X   X",
"X   X XX X  X    XX  X X . X.X XX X X      XX X       XXXXX.X   "
};
