/* XPM */
static char *v2_south[] = {
/* columns rows colors chars-per-pixel */
"64 64 4 1 ",
"  c black",
". c blue",
"X c #E1FFFF",
"o c #FFDD00",
/* pixels */
"                                                                ",
"                                                                ",
"    ...........................  ...........................    ",
"   .                           ..                           .   ",
"   .                           ..                           .   ",
"   .  X X X X X X X X X X X X  ..  X X X X X X X X X X X X  .   ",
"   .                           ..                           .   ",
"   .  X         X           X  ..  X           X         X  .   ",
"   .     .....     .......     ..     .......     .....     .   ",
"   .  X  .   .  X  .     .  X  ..  X  .     .  X  .   .  X  .   ",
"   .     .....     .......     ..     .......     .....     .   ",
"   .  X         X           X      X           X         X  .   ",
"   .                                                        .   ",
"   .  X X X X X X X X X X X X X  X X X X X X X X X X X X X  .   ",
"   .                                                        .   ",
"   .  X               X                  X     X         X  .   ",
"   .     .....     .     ..............     .     .....     .   ",
"   .  X            .  X        ..        X  .  X         X  .   ",
"   .               .           ..           .               .   ",
"   .  X X X X X X  .  X X X X  ..  X X X X  .  X X X X X X  .   ",
"   .               .           ..           .               .   ",
"   .            X  .        X  ..  X        .  X            .   ",
"    ..........     .......     ..     .......     ..........    ",
"             .  X  .        X      X        .  X  .             ",
"             .     .           oo           .     .             ",
"             .  X  .         oooooo         .  X  .             ",
"             .     .       oooooooooo       .     .             ",
"             .  X  .      oooooooooooo      .  X  .             ",
"..............     .      oooooooooooo      .     ..............",
"                X        oooooooooooooo        X                ",
"                         oooooooooooooo                         ",
"                        oooooooooooooooo                        ",
"                        ooooooo  ooooooo                        ",
"                         ooooo    ooooo                         ",
"                X        ooooo XX ooooo        X                ",
"..............     .      ooo  XX  ooo      .     ..............",
"             .  X  .      ooo      ooo      .  X  .             ",
"             .     .       o        o       .     .             ",
"             .  X  .           XX           .  X  .             ",
"             .     .           XX           .     .             ",
"             .  X  .        X      X        .  X  .             ",
"    ..........     .......     ..     .......     ..........    ",
"   .            X  .        X  ..  X        .  X            .   ",
"   .               .           ..           .               .   ",
"   .  X X X X X X  .  X X X X  ..  X X X X  .  X X X X X X  .   ",
"   .               .           ..           .               .   ",
"   .  X         X  .  X        ..        X  .  X         X  .   ",
"   .     .....     .     ..............     .     .....     .   ",
"   .  X         X     X                  X     X         X  .   ",
"   .                                                        .   ",
"   .  X X X X X X X X X X X X X  X X X X X X X X X X X X X  .   ",
"   .                                                        .   ",
"   .  X         X           X      X           X         X  .   ",
"   .     .....     .......     ..     .......     .....     .   ",
"   .  X  .   .  X  .     .  X  ..  X  .     .  X  .   .  X  .   ",
"   .     .....     .......     ..     .......     .....     .   ",
"   .  X         X           X  ..  X           X         X  .   ",
"   .                           ..                           .   ",
"   .  X X X X X X X X X X X X  ..  X X X X X X X X X X X X  .   ",
"   .                           ..                           .   ",
"   .                           ..                           .   ",
"    ...........................  ...........................    ",
"                                                                ",
"                                                                "
};
