/* XPM */
static char *wall_north[] = {
/* columns rows colors chars-per-pixel */
"64 64 2 1 ",
"  c blue",
". c black",
/* pixels */
"                      .....                                    .",
" ........ ...........     . .. ... ......... .......... .... . .",
" .      ...         ... . . .. . .         . .        .    ... .",
"   ... .. .... ....   . ........ ............. .............    ",
".... ... ..       ... .                                      ...",
" . .     ... ...    . .... ........... . ..... ............  .  ",
" . ... ... . . . .. .    . .         . . . . ... ..       .. . .",
" . . ... . ... . .  .... . ........... . . .        ... ...  . .",
" .       .   . . ..    . .             . . .......... ... .. . .",
" ....... .. .. .  .... . ............... . .                 . .",
"     . .    .  . .. .. .         .       . . ................. .",
" ... . .... .. .     . ......... . .....   . .                 .",
"   . . .  .  . .  ..           . .... ...... . ..... ... ... . .",
".... . .. .... .. .. ... . ... .             .     ... ... .... ",
".    . .     .  . .. . . . . . ............... .....          . ",
". .... .. ..... .    . ... . .                     . ........ . ",
".       .   . . .... . ..  . . ............... ..... .        . ",
"..... ... .....    . .    .. . . .   .   .   . .     . ..... .. ",
"                .. . ......  . .   .   .   . . . ..... .   . . .",
" .... ....... .... .        .. ........... .   . .     . . . . .",
" .  . .    .  .  . .... ... .            ....... . ... . . . . .",
" .. . . ..... .. .    . . . ........... ..       . . . . . . . .",
"    . .        . . .. .               . .  ....... . .   . . .  ",
"..... .   . . .. .... . .............   .. . . .   . ..... . ...",
"      ..... . .  .    . ...............        . ...       ...  ",
" .. ...   . .    . .... ..   ......  ........... . .......     .",
"  ..... . . ...... .    ..    .....  ...                 . .....",
"        .     ..   . . ...    .....  ... ....... ... ... ...    ",
"............. .. ... . ...     ....  ..        . . . . . .   ...",
"            .    .   . ...  .  ....  .. ...... . . . . . .....  ",
" .......... ...... ... ...  ..  ...  .. .    . . . . . .        ",
"..        .        .    ..  ..  ...  .. .... . . . . . . .......",
"   ... .. ... ... .. .. ..  ...  ..  ..      . . . . . .  .  .  ",
".... .. . . ... .... .. ..  ...   .  .. .... . . . . . .  .. ...",
"..    . .            .  ..  ....     .. .  . . . . . . .   .  ..",
" . .. . .. ... . ..... ...  .....    .. .... . . . . . . . ..   ",
" . .... .... ... .     ...  ......   ..      . . . . . . .......",
" .               ..    ................. ..... . . . . .       .",
"   .............  . ..   ............... ..... . . . . . .....  ",
"..             .. . .... ..............        . . . . . .   . .",
" . ...........  . . .  .        ....... .. ..... . . . . . . . .",
" . .         .. . . ......... .          .     . . . . . . . . .",
" . . .......  . . .           . .......... ... . . . . . . . . .",
" . . . . . .. . . ............. .        . . . . . . . . . . . .",
" . . . . .  . . .               . ...... . . . . . . . . . . . .",
" . . . . .... . ................. .    . . . . . . . . . . . . .",
" . . . .    . .                   . .  . . . . ... ... ... ... .",
" . . . ...... ..................... .. . . . .                 .",
".. . .     .                         . . . . ................. .",
"   . ....... ..................... ... . . .                 .  ",
" ... ..... . .            .      .   . ... . ............... ...",
" .       . . . ........ . . .... ... .     . .             .   .",
" ....... . . . .      . . . .. .   . ..... ... ... ... . . ... .",
"       . . . . . .... . . . .  ... .     .     . . . . . .   . .",
" ..... . . . . . .  . . . . ..   . ..... ....... . . . . . . . .",
"     . . .   . . .. . ... .  . . .     .       . ... ... . ... .",
". .... . . ... . .. .     . .. . ..... .......           . .    ",
".   .  . .          ....... .  .     .       ....... ...   .... ",
". .... . ..........         .. .. .. .......       . . . .    . ",
".   .. .          ............ .. .. .     ....... . . . .... ..",
"  ...  . ... . .               .  .  . ...       . . . . .  .   ",
" .. .. . . . ... .... ....  ..... .... ......... . . ... .. ....",
"       . . ... ...  ...  ....   . .            . . .      .    .",
" ....... .                      . .............. . ...... . .. ."
};
